<svg width="32" height="33" viewBox="0 0 32 33" fill="none" xmlns="http://www.w3.org/2000/svg">
<path d="M26.5 5.5H5.5C4.57205 5.50099 3.68238 5.87006 3.02622 6.52622C2.37006 7.18238 2.00099 8.07205 2 9V24C2.00099 24.928 2.37006 25.8176 3.02622 26.4738C3.68238 27.1299 4.57205 27.499 5.5 27.5H26.5C27.428 27.499 28.3176 27.1299 28.9738 26.4738C29.6299 25.8176 29.999 24.928 30 24V9C29.999 8.07205 29.6299 7.18238 28.9738 6.52622C28.3176 5.87006 27.428 5.50099 26.5 5.5ZM25.6138 11.2894L16.6138 18.2894C16.4382 18.4258 16.2223 18.4999 16 18.4999C15.7777 18.4999 15.5618 18.4258 15.3862 18.2894L6.38625 11.2894C6.28051 11.2095 6.19169 11.1094 6.12496 10.995C6.05823 10.8805 6.01491 10.7539 5.99753 10.6225C5.98015 10.4912 5.98905 10.3577 6.02371 10.2298C6.05837 10.1019 6.1181 9.98216 6.19944 9.87755C6.28077 9.77294 6.38208 9.68554 6.49749 9.62043C6.61289 9.55532 6.74008 9.51379 6.87168 9.49825C7.00327 9.48272 7.13664 9.4935 7.26403 9.52996C7.39142 9.56642 7.5103 9.62783 7.61375 9.71062L16 16.2331L24.3862 9.71062C24.596 9.55226 24.8596 9.48281 25.1201 9.51728C25.3806 9.55175 25.617 9.68738 25.7783 9.89483C25.9396 10.1023 26.0128 10.3649 25.982 10.6259C25.9512 10.8868 25.8189 11.1252 25.6138 11.2894Z" fill="#89ABD7"/>
</svg>
