<svg width="32" height="33" viewBox="0 0 32 33" fill="none" xmlns="http://www.w3.org/2000/svg">
<path d="M20.427 22.0928L22.7137 19.8061C23.0217 19.5019 23.4114 19.2937 23.8354 19.2067C24.2595 19.1197 24.6996 19.1577 25.1025 19.3161L27.8894 20.4288C28.2965 20.594 28.6456 20.8761 28.8927 21.2394C29.1397 21.6028 29.2737 22.0311 29.2777 22.4705V27.5747C29.2754 27.8736 29.2125 28.1689 29.093 28.4428C28.9735 28.7168 28.7998 28.9637 28.5824 29.1688C28.3649 29.3738 28.1082 29.5328 27.8277 29.636C27.5472 29.7392 27.2487 29.7847 26.9502 29.7695C7.42149 28.5547 3.48104 12.017 2.73582 5.68781C2.70123 5.377 2.73284 5.06239 2.82857 4.76467C2.92429 4.46696 3.08197 4.19288 3.29123 3.96048C3.50049 3.72808 3.75658 3.54262 4.04266 3.4163C4.32874 3.28998 4.63833 3.22566 4.95105 3.22758H9.88172C10.3217 3.22888 10.7513 3.36179 11.1151 3.6092C11.4789 3.85662 11.7604 4.20722 11.9234 4.61593L13.0361 7.40283C13.1997 7.80409 13.2415 8.24466 13.1561 8.6695C13.0708 9.09434 12.8622 9.48463 12.5563 9.7916L10.2696 12.0783C10.2696 12.0783 11.5865 20.9902 20.427 22.0928Z" fill="#89ABD7"/>
</svg>
