<svg width="32" height="41" viewBox="0 0 32 41" fill="none" xmlns="http://www.w3.org/2000/svg">
<path d="M16 19.8332C15.116 19.8332 14.2681 19.482 13.643 18.8569C13.0179 18.2317 12.6667 17.3839 12.6667 16.4998C12.6667 15.6158 13.0179 14.7679 13.643 14.1428C14.2681 13.5177 15.116 13.1665 16 13.1665C16.8841 13.1665 17.7319 13.5177 18.357 14.1428C18.9822 14.7679 19.3334 15.6158 19.3334 16.4998C19.3334 16.9376 19.2471 17.371 19.0796 17.7754C18.9121 18.1799 18.6666 18.5473 18.357 18.8569C18.0475 19.1664 17.68 19.4119 17.2756 19.5794C16.8712 19.747 16.4378 19.8332 16 19.8332ZM16 7.1665C13.5247 7.1665 11.1507 8.14983 9.40036 9.90017C7.65002 11.6505 6.66669 14.0245 6.66669 16.4998C6.66669 23.4998 16 33.8332 16 33.8332C16 33.8332 25.3334 23.4998 25.3334 16.4998C25.3334 14.0245 24.35 11.6505 22.5997 9.90017C20.8493 8.14983 18.4754 7.1665 16 7.1665Z" fill="#89ABD7"/>
</svg>
