<svg width="32" height="33" viewBox="0 0 32 33" fill="none" xmlns="http://www.w3.org/2000/svg">
<path d="M29 17C29 20.4478 27.6304 23.7544 25.1924 26.1924C22.7544 28.6304 19.4478 30 16 30C12.5522 30 9.24558 28.6304 6.80761 26.1924C4.36964 23.7544 3 20.4478 3 17C3 13.5522 4.36964 10.2456 6.80761 7.80761C9.24558 5.36964 12.5522 4 16 4C19.4478 4 22.7544 5.36964 25.1924 7.80761C27.6304 10.2456 29 13.5522 29 17ZM16 9.6875C16 9.47201 15.9144 9.26535 15.762 9.11298C15.6097 8.9606 15.403 8.875 15.1875 8.875C14.972 8.875 14.7653 8.9606 14.613 9.11298C14.4606 9.26535 14.375 9.47201 14.375 9.6875V18.625C14.375 18.7682 14.4129 18.9089 14.4849 19.0327C14.5568 19.1566 14.6601 19.2592 14.7845 19.3302L20.472 22.5802C20.6586 22.6811 20.8773 22.705 21.0814 22.6467C21.2854 22.5885 21.4585 22.4528 21.5638 22.2686C21.669 22.0844 21.698 21.8663 21.6447 21.661C21.5913 21.4556 21.4597 21.2793 21.278 21.1698L16 18.1538V9.6875Z" fill="#89ABD7"/>
</svg>
