<svg width="289" height="26" viewBox="0 0 289 26" fill="none" xmlns="http://www.w3.org/2000/svg">
<path d="M0.624 24V1.6H13.264V5.312H4.944V10.08H7.408C9.92533 10.08 11.8987 10.688 13.328 11.904C14.7787 13.12 15.504 14.7947 15.504 16.928C15.504 19.1253 14.7787 20.8533 13.328 22.112C11.8773 23.3707 9.904 24 7.408 24H0.624ZM6.96 20.288C8.32533 20.288 9.34933 20.0107 10.032 19.456C10.736 18.88 11.088 18.0587 11.088 16.992C11.088 16.032 10.7467 15.264 10.064 14.688C9.38133 14.0907 8.31467 13.792 6.864 13.792H4.944V20.288H6.96ZM38.2205 24H33.6765L31.7565 19.04H23.1805L21.2925 24H17.0365L25.9645 1.44H29.1645L38.2205 24ZM27.4685 7.872L24.5245 15.552H30.4125L27.4685 7.872ZM67.3335 24H41.0615V1.6H45.3815V20.288H52.0375V1.6H56.3575V20.288H63.0135V1.6H67.3335V24ZM80.2088 24H75.8568V5.312H70.5448V1.6H85.4888V5.312H80.2088V24ZM101.455 24H88.6553V1.6H101.135V5.312H92.9753V10.368H99.6953V13.984H92.9753V20.288H101.455V24ZM103.263 24.128L103.231 20.192C103.423 20.256 103.625 20.288 103.839 20.288C104.628 20.288 105.268 19.8827 105.759 19.072C106.249 18.2613 106.601 16.9387 106.815 15.104C107.049 13.2693 107.167 10.7947 107.167 7.68V1.6H121.631V24H117.311V5.248H111.199V10.496C111.199 15.424 110.633 18.9547 109.503 21.088C108.372 23.2 106.697 24.256 104.479 24.256C104.052 24.256 103.647 24.2133 103.263 24.128ZM139.674 24H126.874V1.6H139.354V5.312H131.194V10.368H137.914V13.984H131.194V20.288H139.674V24ZM147.882 16.128L159.594 1.6H162.346V24H157.962V9.536L146.314 24H143.562V1.6H147.882V16.128ZM181.546 10.304V1.6H185.866V24H181.546V14.048H171.882V24H167.562V1.6H171.882V10.304H181.546ZM204.884 22.848V25.088H200.564V22.848C198.431 22.8267 196.532 22.3787 194.868 21.504C193.225 20.608 191.945 19.392 191.028 17.856C190.132 16.2987 189.684 14.5387 189.684 12.576C189.684 10.6987 190.1 8.992 190.932 7.456C191.764 5.89867 193.001 4.66133 194.644 3.744C196.287 2.80533 198.26 2.32533 200.564 2.304V0.447998H204.884V2.304C206.996 2.304 208.873 2.752 210.516 3.648C212.18 4.52267 213.471 5.73867 214.388 7.296C215.305 8.85333 215.764 10.6133 215.764 12.576C215.764 14.4533 215.348 16.1707 214.516 17.728C213.684 19.2853 212.447 20.5227 210.804 21.44C209.183 22.3573 207.209 22.8267 204.884 22.848ZM200.564 19.104V6.048C198.516 6.06933 196.948 6.67733 195.86 7.872C194.772 9.06667 194.228 10.656 194.228 12.64C194.228 14.5813 194.804 16.1387 195.956 17.312C197.129 18.464 198.665 19.0613 200.564 19.104ZM204.884 19.104C206.932 19.0827 208.5 18.4747 209.588 17.28C210.676 16.064 211.22 14.4747 211.22 12.512C211.22 10.5493 210.644 8.992 209.492 7.84C208.34 6.688 206.804 6.09067 204.884 6.048V19.104ZM218.122 12.768C218.122 10.592 218.602 8.64 219.562 6.912C220.543 5.16267 221.93 3.78666 223.722 2.784C225.514 1.78133 227.583 1.28 229.93 1.28C232.255 1.28 234.314 1.77067 236.106 2.752C237.898 3.712 239.284 5.06667 240.266 6.816C241.268 8.56533 241.77 10.56 241.77 12.8C241.77 14.9547 241.279 16.9067 240.298 18.656C239.316 20.4053 237.93 21.7813 236.138 22.784C234.346 23.7867 232.276 24.288 229.93 24.288C227.562 24.288 225.482 23.808 223.69 22.848C221.919 21.8667 220.543 20.5013 219.562 18.752C218.602 17.0027 218.122 15.008 218.122 12.768ZM237.29 12.768C237.29 11.2107 236.97 9.84533 236.33 8.672C235.711 7.47733 234.847 6.56 233.738 5.92C232.628 5.28 231.359 4.96 229.93 4.96C228.522 4.96 227.263 5.29067 226.154 5.952C225.044 6.592 224.17 7.49867 223.53 8.672C222.911 9.84533 222.602 11.2107 222.602 12.768C222.602 14.3253 222.911 15.7013 223.53 16.896C224.148 18.0693 225.012 18.976 226.122 19.616C227.231 20.256 228.5 20.576 229.93 20.576C231.316 20.576 232.564 20.256 233.674 19.616C234.804 18.976 235.69 18.0693 236.33 16.896C236.97 15.7013 237.29 14.3253 237.29 12.768ZM252.314 1.6C254.789 1.6 256.741 2.22933 258.17 3.488C259.6 4.72533 260.314 6.42133 260.314 8.576C260.314 10.0267 259.984 11.296 259.322 12.384C258.661 13.472 257.712 14.3253 256.474 14.944C255.237 15.5413 253.786 15.84 252.122 15.84H249.85V24H245.53V1.6H252.314ZM251.866 12.128C253.189 12.128 254.192 11.808 254.874 11.168C255.557 10.528 255.898 9.70667 255.898 8.704C255.898 7.70133 255.557 6.89067 254.874 6.272C254.213 5.632 253.189 5.312 251.802 5.312H249.85V12.128H251.866ZM284.87 1.6L288.038 24H283.814L281.83 9.888L276.038 24H274.406L268.454 10.08L266.662 24H262.598L265.446 1.6H268.902L275.302 16.704L281.446 1.6H284.87Z" fill="white"/>
</svg>
